
<svg xmlns="http://www.w3.org/2000/svg" viewBox="0 0 800 520">
  <defs>
    <style>
      .mountain { fill: none; stroke: #ffffff; stroke-width: 10; stroke-linecap: round; stroke-linejoin: round; }
      .accent { fill: none; stroke: #F1C84B; stroke-width: 10; stroke-linecap: round; }
      .dishfill { fill: none; stroke: #ffffff; stroke-width: 10; stroke-linecap: round; stroke-linejoin: round; }
      .title { fill: #ffffff; font-size: 64px; font-family: Inter, system-ui, -apple-system, Segoe UI, Roboto, Helvetica, Arial, "Noto Sans", "Liberation Sans", sans-serif; font-weight: 700; }
    </style>
  </defs>

  <!-- Mark -->
  <g transform="translate(40,40) scale(1)">
    <path class="mountain" d="M0 310 L110 260 L160 290 L210 240 L270 285 L325 260 L430 310"/>
    <path class="mountain" d="M160 290 L200 265 L215 270"/>
    <path class="mountain" d="M270 285 L300 270"/>
    <path class="dishfill" d="M210 240 L222 215 L235 225"/>
    <path class="dishfill" d="M246 200 A34 34 0 1 1 198 182"/>
    <path class="dishfill" d="M230 194 A18 18 0 1 1 205 184"/>
    <path class="dishfill" d="M218 206 L235 220"/>
    <path class="accent" d="M290 160 q30 -10 55 10"/>
    <path class="accent" d="M278 140 q45 -15 80 12"/>
    <path class="accent" d="M265 122 q60 -18 105 15"/>
  </g>

  <!-- Wordmark -->
  <text x="40" y="460" class="title">Signal Ridge</text>
</svg>
